<svg width="1891" height="1663" viewBox="0 0 1891 1663" fill="none" xmlns="http://www.w3.org/2000/svg">
<path d="M105.941 1H1V93.3004H105.941V1Z" stroke="#914AD2" stroke-opacity="0.3" stroke-width="0.5"/>
<path d="M210.883 1H105.941V93.3004H210.883V1Z" stroke="#914AD2" stroke-opacity="0.3" stroke-width="0.5"/>
<path d="M315.824 1H210.882V93.3004H315.824V1Z" stroke="#914AD2" stroke-opacity="0.3" stroke-width="0.5"/>
<path d="M420.765 1H315.824V93.3004H420.765V1Z" stroke="#914AD2" stroke-opacity="0.3" stroke-width="0.5"/>
<path d="M525.706 1H420.765V93.3004H525.706V1Z" stroke="#914AD2" stroke-opacity="0.3" stroke-width="0.5"/>
<path d="M630.647 1H525.706V93.3004H630.647V1Z" stroke="#914AD2" stroke-opacity="0.3" stroke-width="0.5"/>
<path d="M735.588 1H630.647V93.3004H735.588V1Z" stroke="#914AD2" stroke-opacity="0.3" stroke-width="0.5"/>
<path d="M840.53 1H735.588V93.3004H840.53V1Z" stroke="#914AD2" stroke-opacity="0.3" stroke-width="0.5"/>
<path d="M945.471 1H840.529V93.3004H945.471V1Z" stroke="#914AD2" stroke-opacity="0.3" stroke-width="0.5"/>
<path d="M1050.41 1H945.471V93.3004H1050.41V1Z" stroke="#914AD2" stroke-opacity="0.3" stroke-width="0.5"/>
<path d="M1155.35 1H1050.41V93.3004H1155.35V1Z" stroke="#914AD2" stroke-opacity="0.3" stroke-width="0.5"/>
<path d="M1260.29 1H1155.35V93.3004H1260.29V1Z" stroke="#914AD2" stroke-opacity="0.3" stroke-width="0.5"/>
<path d="M1365.24 1H1260.29V93.3004H1365.24V1Z" stroke="#914AD2" stroke-opacity="0.3" stroke-width="0.5"/>
<path d="M1470.18 1H1365.24V93.3004H1470.18V1Z" stroke="#914AD2" stroke-opacity="0.3" stroke-width="0.5"/>
<path d="M1575.12 1H1470.18V93.3004H1575.12V1Z" stroke="#914AD2" stroke-opacity="0.3" stroke-width="0.5"/>
<path d="M1680.06 1H1575.12V93.3004H1680.06V1Z" stroke="#914AD2" stroke-opacity="0.3" stroke-width="0.5"/>
<path d="M1785 1H1680.06V93.3004H1785V1Z" stroke="#914AD2" stroke-opacity="0.3" stroke-width="0.5"/>
<path d="M1889.94 1H1785V93.3004H1889.94V1Z" stroke="#914AD2" stroke-opacity="0.3" stroke-width="0.5"/>
<path d="M105.941 93.3003H1V185.601H105.941V93.3003Z" stroke="#914AD2" stroke-opacity="0.3" stroke-width="0.5"/>
<path d="M210.883 93.3003H105.941V185.601H210.883V93.3003Z" stroke="#914AD2" stroke-opacity="0.3" stroke-width="0.5"/>
<path d="M315.824 93.3003H210.882V185.601H315.824V93.3003Z" stroke="#914AD2" stroke-opacity="0.3" stroke-width="0.5"/>
<path d="M420.765 93.3003H315.824V185.601H420.765V93.3003Z" stroke="#914AD2" stroke-opacity="0.3" stroke-width="0.5"/>
<path d="M525.706 93.3003H420.765V185.601H525.706V93.3003Z" stroke="#914AD2" stroke-opacity="0.3" stroke-width="0.5"/>
<path d="M630.647 93.3003H525.706V185.601H630.647V93.3003Z" stroke="#914AD2" stroke-opacity="0.3" stroke-width="0.5"/>
<path d="M735.588 93.3003H630.647V185.601H735.588V93.3003Z" stroke="#914AD2" stroke-opacity="0.3" stroke-width="0.5"/>
<path d="M840.53 93.3003H735.588V185.601H840.53V93.3003Z" stroke="#914AD2" stroke-opacity="0.3" stroke-width="0.5"/>
<path d="M945.471 93.3003H840.529V185.601H945.471V93.3003Z" stroke="#914AD2" stroke-opacity="0.3" stroke-width="0.5"/>
<path d="M1050.41 93.3003H945.471V185.601H1050.41V93.3003Z" stroke="#914AD2" stroke-opacity="0.3" stroke-width="0.5"/>
<path d="M1155.35 93.3003H1050.41V185.601H1155.35V93.3003Z" stroke="#914AD2" stroke-opacity="0.3" stroke-width="0.5"/>
<path d="M1260.29 93.3003H1155.35V185.601H1260.29V93.3003Z" stroke="#914AD2" stroke-opacity="0.3" stroke-width="0.5"/>
<path d="M1365.24 93.3003H1260.29V185.601H1365.24V93.3003Z" stroke="#914AD2" stroke-opacity="0.3" stroke-width="0.5"/>
<path d="M1470.18 93.3003H1365.24V185.601H1470.18V93.3003Z" stroke="#914AD2" stroke-opacity="0.3" stroke-width="0.5"/>
<path d="M1575.12 93.3003H1470.18V185.601H1575.12V93.3003Z" stroke="#914AD2" stroke-opacity="0.3" stroke-width="0.5"/>
<path d="M1680.06 93.3003H1575.12V185.601H1680.06V93.3003Z" stroke="#914AD2" stroke-opacity="0.3" stroke-width="0.5"/>
<path d="M1785 93.3003H1680.06V185.601H1785V93.3003Z" stroke="#914AD2" stroke-opacity="0.3" stroke-width="0.5"/>
<path d="M1889.94 93.3003H1785V185.601H1889.94V93.3003Z" stroke="#914AD2" stroke-opacity="0.3" stroke-width="0.5"/>
<path d="M105.941 185.601H1V277.901H105.941V185.601Z" stroke="#914AD2" stroke-opacity="0.3" stroke-width="0.5"/>
<path d="M210.883 185.601H105.941V277.901H210.883V185.601Z" stroke="#914AD2" stroke-opacity="0.3" stroke-width="0.5"/>
<path d="M315.824 185.601H210.882V277.901H315.824V185.601Z" stroke="#914AD2" stroke-opacity="0.3" stroke-width="0.5"/>
<path d="M420.765 185.601H315.824V277.901H420.765V185.601Z" stroke="#914AD2" stroke-opacity="0.3" stroke-width="0.5"/>
<path d="M525.706 185.601H420.765V277.901H525.706V185.601Z" stroke="#914AD2" stroke-opacity="0.3" stroke-width="0.5"/>
<path d="M630.647 185.601H525.706V277.901H630.647V185.601Z" stroke="#914AD2" stroke-opacity="0.3" stroke-width="0.5"/>
<path d="M735.588 185.601H630.647V277.901H735.588V185.601Z" stroke="#914AD2" stroke-opacity="0.3" stroke-width="0.5"/>
<path d="M840.53 185.601H735.588V277.901H840.53V185.601Z" stroke="#914AD2" stroke-opacity="0.3" stroke-width="0.5"/>
<path d="M945.471 185.601H840.529V277.901H945.471V185.601Z" stroke="#914AD2" stroke-opacity="0.3" stroke-width="0.5"/>
<path d="M1050.41 185.601H945.471V277.901H1050.41V185.601Z" stroke="#914AD2" stroke-opacity="0.3" stroke-width="0.5"/>
<path d="M1155.35 185.601H1050.41V277.901H1155.35V185.601Z" stroke="#914AD2" stroke-opacity="0.3" stroke-width="0.5"/>
<path d="M1260.29 185.601H1155.35V277.901H1260.29V185.601Z" stroke="#914AD2" stroke-opacity="0.3" stroke-width="0.5"/>
<path d="M1365.24 185.601H1260.29V277.901H1365.24V185.601Z" stroke="#914AD2" stroke-opacity="0.3" stroke-width="0.5"/>
<path d="M1470.18 185.601H1365.24V277.901H1470.18V185.601Z" stroke="#914AD2" stroke-opacity="0.3" stroke-width="0.5"/>
<path d="M1575.12 185.601H1470.18V277.901H1575.12V185.601Z" stroke="#914AD2" stroke-opacity="0.3" stroke-width="0.5"/>
<path d="M1680.06 185.601H1575.12V277.901H1680.06V185.601Z" stroke="#914AD2" stroke-opacity="0.3" stroke-width="0.5"/>
<path d="M1785 185.601H1680.06V277.901H1785V185.601Z" stroke="#914AD2" stroke-opacity="0.3" stroke-width="0.5"/>
<path d="M1889.94 185.601H1785V277.901H1889.94V185.601Z" stroke="#914AD2" stroke-opacity="0.3" stroke-width="0.5"/>
<path d="M105.941 277.901H1V370.201H105.941V277.901Z" stroke="#914AD2" stroke-opacity="0.3" stroke-width="0.5"/>
<path d="M210.883 277.901H105.941V370.201H210.883V277.901Z" stroke="#914AD2" stroke-opacity="0.3" stroke-width="0.5"/>
<path d="M315.824 277.901H210.882V370.201H315.824V277.901Z" stroke="#914AD2" stroke-opacity="0.3" stroke-width="0.5"/>
<path d="M420.765 277.901H315.824V370.201H420.765V277.901Z" stroke="#914AD2" stroke-opacity="0.3" stroke-width="0.5"/>
<path d="M525.706 277.901H420.765V370.201H525.706V277.901Z" stroke="#914AD2" stroke-opacity="0.3" stroke-width="0.5"/>
<path d="M630.647 277.901H525.706V370.201H630.647V277.901Z" stroke="#914AD2" stroke-opacity="0.3" stroke-width="0.5"/>
<path d="M735.588 277.901H630.647V370.201H735.588V277.901Z" stroke="#914AD2" stroke-opacity="0.3" stroke-width="0.5"/>
<path d="M840.53 277.901H735.588V370.201H840.53V277.901Z" stroke="#914AD2" stroke-opacity="0.3" stroke-width="0.5"/>
<path d="M945.471 277.901H840.529V370.201H945.471V277.901Z" stroke="#914AD2" stroke-opacity="0.3" stroke-width="0.5"/>
<path d="M1050.41 277.901H945.471V370.201H1050.41V277.901Z" stroke="#914AD2" stroke-opacity="0.3" stroke-width="0.5"/>
<path d="M1155.35 277.901H1050.41V370.201H1155.35V277.901Z" stroke="#914AD2" stroke-opacity="0.3" stroke-width="0.5"/>
<path d="M1260.29 277.901H1155.35V370.201H1260.29V277.901Z" stroke="#914AD2" stroke-opacity="0.3" stroke-width="0.5"/>
<path d="M1365.24 277.901H1260.29V370.201H1365.24V277.901Z" stroke="#914AD2" stroke-opacity="0.3" stroke-width="0.5"/>
<path d="M1470.18 277.901H1365.24V370.201H1470.18V277.901Z" stroke="#914AD2" stroke-opacity="0.3" stroke-width="0.5"/>
<path d="M1575.12 277.901H1470.18V370.201H1575.12V277.901Z" stroke="#914AD2" stroke-opacity="0.3" stroke-width="0.5"/>
<path d="M1680.06 277.901H1575.12V370.201H1680.06V277.901Z" stroke="#914AD2" stroke-opacity="0.3" stroke-width="0.5"/>
<path d="M1785 277.901H1680.06V370.201H1785V277.901Z" stroke="#914AD2" stroke-opacity="0.3" stroke-width="0.5"/>
<path d="M1889.94 277.901H1785V370.201H1889.94V277.901Z" stroke="#914AD2" stroke-opacity="0.3" stroke-width="0.5"/>
<path d="M105.941 370.202H1V462.502H105.941V370.202Z" stroke="#914AD2" stroke-opacity="0.3" stroke-width="0.5"/>
<path d="M210.883 370.202H105.941V462.502H210.883V370.202Z" stroke="#914AD2" stroke-opacity="0.3" stroke-width="0.5"/>
<path d="M315.824 370.202H210.882V462.502H315.824V370.202Z" stroke="#914AD2" stroke-opacity="0.3" stroke-width="0.5"/>
<path d="M420.765 370.202H315.824V462.502H420.765V370.202Z" stroke="#914AD2" stroke-opacity="0.3" stroke-width="0.5"/>
<path d="M525.706 370.202H420.765V462.502H525.706V370.202Z" stroke="#914AD2" stroke-opacity="0.3" stroke-width="0.5"/>
<path d="M630.647 370.202H525.706V462.502H630.647V370.202Z" stroke="#914AD2" stroke-opacity="0.3" stroke-width="0.5"/>
<path d="M735.588 370.202H630.647V462.502H735.588V370.202Z" stroke="#914AD2" stroke-opacity="0.3" stroke-width="0.5"/>
<path d="M840.53 370.202H735.588V462.502H840.53V370.202Z" stroke="#914AD2" stroke-opacity="0.3" stroke-width="0.5"/>
<path d="M945.471 370.202H840.529V462.502H945.471V370.202Z" stroke="#914AD2" stroke-opacity="0.3" stroke-width="0.5"/>
<path d="M1050.41 370.202H945.471V462.502H1050.41V370.202Z" stroke="#914AD2" stroke-opacity="0.3" stroke-width="0.5"/>
<path d="M1155.35 370.202H1050.41V462.502H1155.35V370.202Z" stroke="#914AD2" stroke-opacity="0.3" stroke-width="0.5"/>
<path d="M1260.29 370.202H1155.35V462.502H1260.29V370.202Z" stroke="#914AD2" stroke-opacity="0.3" stroke-width="0.5"/>
<path d="M1365.24 370.202H1260.29V462.502H1365.24V370.202Z" stroke="#914AD2" stroke-opacity="0.3" stroke-width="0.5"/>
<path d="M1470.18 370.202H1365.24V462.502H1470.18V370.202Z" stroke="#914AD2" stroke-opacity="0.3" stroke-width="0.5"/>
<path d="M1575.12 370.202H1470.18V462.502H1575.12V370.202Z" stroke="#914AD2" stroke-opacity="0.3" stroke-width="0.5"/>
<path d="M1680.06 370.202H1575.12V462.502H1680.06V370.202Z" stroke="#914AD2" stroke-opacity="0.3" stroke-width="0.5"/>
<path d="M1785 370.202H1680.06V462.502H1785V370.202Z" stroke="#914AD2" stroke-opacity="0.3" stroke-width="0.5"/>
<path d="M1889.94 370.202H1785V462.502H1889.94V370.202Z" stroke="#914AD2" stroke-opacity="0.3" stroke-width="0.5"/>
<path d="M105.941 462.502H1V554.802H105.941V462.502Z" stroke="#914AD2" stroke-opacity="0.3" stroke-width="0.5"/>
<path d="M210.883 462.502H105.941V554.802H210.883V462.502Z" stroke="#914AD2" stroke-opacity="0.3" stroke-width="0.5"/>
<path d="M315.824 462.502H210.882V554.802H315.824V462.502Z" stroke="#914AD2" stroke-opacity="0.3" stroke-width="0.5"/>
<path d="M420.765 462.502H315.824V554.802H420.765V462.502Z" stroke="#914AD2" stroke-opacity="0.3" stroke-width="0.5"/>
<path d="M525.706 462.502H420.765V554.802H525.706V462.502Z" stroke="#914AD2" stroke-opacity="0.3" stroke-width="0.5"/>
<path d="M630.647 462.502H525.706V554.802H630.647V462.502Z" stroke="#914AD2" stroke-opacity="0.3" stroke-width="0.5"/>
<path d="M735.588 462.502H630.647V554.802H735.588V462.502Z" stroke="#914AD2" stroke-opacity="0.3" stroke-width="0.5"/>
<path d="M840.53 462.502H735.588V554.802H840.53V462.502Z" stroke="#914AD2" stroke-opacity="0.3" stroke-width="0.5"/>
<path d="M945.471 462.502H840.529V554.802H945.471V462.502Z" stroke="#914AD2" stroke-opacity="0.3" stroke-width="0.5"/>
<path d="M1050.41 462.502H945.471V554.802H1050.41V462.502Z" stroke="#914AD2" stroke-opacity="0.3" stroke-width="0.5"/>
<path d="M1155.35 462.502H1050.41V554.802H1155.35V462.502Z" stroke="#914AD2" stroke-opacity="0.3" stroke-width="0.5"/>
<path d="M1260.29 462.502H1155.35V554.802H1260.29V462.502Z" stroke="#914AD2" stroke-opacity="0.3" stroke-width="0.5"/>
<path d="M1365.24 462.502H1260.29V554.802H1365.24V462.502Z" stroke="#914AD2" stroke-opacity="0.3" stroke-width="0.5"/>
<path d="M1470.18 462.502H1365.24V554.802H1470.18V462.502Z" stroke="#914AD2" stroke-opacity="0.3" stroke-width="0.5"/>
<path d="M1575.12 462.502H1470.18V554.802H1575.12V462.502Z" stroke="#914AD2" stroke-opacity="0.3" stroke-width="0.5"/>
<path d="M1680.06 462.502H1575.12V554.802H1680.06V462.502Z" stroke="#914AD2" stroke-opacity="0.3" stroke-width="0.5"/>
<path d="M1785 462.502H1680.06V554.802H1785V462.502Z" stroke="#914AD2" stroke-opacity="0.3" stroke-width="0.5"/>
<path d="M1889.94 462.502H1785V554.802H1889.94V462.502Z" stroke="#914AD2" stroke-opacity="0.3" stroke-width="0.5"/>
<path d="M105.941 554.802H1V647.103H105.941V554.802Z" stroke="#914AD2" stroke-opacity="0.3" stroke-width="0.5"/>
<path d="M210.883 554.802H105.941V647.103H210.883V554.802Z" stroke="#914AD2" stroke-opacity="0.3" stroke-width="0.5"/>
<path d="M315.824 554.802H210.882V647.103H315.824V554.802Z" stroke="#914AD2" stroke-opacity="0.3" stroke-width="0.5"/>
<path d="M420.765 554.802H315.824V647.103H420.765V554.802Z" stroke="#914AD2" stroke-opacity="0.3" stroke-width="0.5"/>
<path d="M525.706 554.802H420.765V647.103H525.706V554.802Z" stroke="#914AD2" stroke-opacity="0.3" stroke-width="0.5"/>
<path d="M630.647 554.802H525.706V647.103H630.647V554.802Z" stroke="#914AD2" stroke-opacity="0.3" stroke-width="0.5"/>
<path d="M735.588 554.802H630.647V647.103H735.588V554.802Z" stroke="#914AD2" stroke-opacity="0.3" stroke-width="0.5"/>
<path d="M840.53 554.802H735.588V647.103H840.53V554.802Z" stroke="#914AD2" stroke-opacity="0.3" stroke-width="0.5"/>
<path d="M945.471 554.802H840.529V647.103H945.471V554.802Z" stroke="#914AD2" stroke-opacity="0.3" stroke-width="0.5"/>
<path d="M1050.41 554.802H945.471V647.103H1050.41V554.802Z" stroke="#914AD2" stroke-opacity="0.3" stroke-width="0.5"/>
<path d="M1155.35 554.802H1050.41V647.103H1155.35V554.802Z" stroke="#914AD2" stroke-opacity="0.3" stroke-width="0.5"/>
<path d="M1260.29 554.802H1155.35V647.103H1260.29V554.802Z" stroke="#914AD2" stroke-opacity="0.3" stroke-width="0.5"/>
<path d="M1365.24 554.802H1260.29V647.103H1365.24V554.802Z" stroke="#914AD2" stroke-opacity="0.3" stroke-width="0.5"/>
<path d="M1470.18 554.802H1365.24V647.103H1470.18V554.802Z" stroke="#914AD2" stroke-opacity="0.3" stroke-width="0.5"/>
<path d="M1575.12 554.802H1470.18V647.103H1575.12V554.802Z" stroke="#914AD2" stroke-opacity="0.3" stroke-width="0.5"/>
<path d="M1680.06 554.802H1575.12V647.103H1680.06V554.802Z" stroke="#914AD2" stroke-opacity="0.3" stroke-width="0.5"/>
<path d="M1785 554.802H1680.06V647.103H1785V554.802Z" stroke="#914AD2" stroke-opacity="0.3" stroke-width="0.5"/>
<path d="M1889.94 554.802H1785V647.103H1889.94V554.802Z" stroke="#914AD2" stroke-opacity="0.3" stroke-width="0.5"/>
<path d="M105.941 647.103H1V739.403H105.941V647.103Z" stroke="#914AD2" stroke-opacity="0.3" stroke-width="0.5"/>
<path d="M210.883 647.103H105.941V739.403H210.883V647.103Z" stroke="#914AD2" stroke-opacity="0.3" stroke-width="0.5"/>
<path d="M315.824 647.103H210.882V739.403H315.824V647.103Z" stroke="#914AD2" stroke-opacity="0.3" stroke-width="0.5"/>
<path d="M420.765 647.103H315.824V739.403H420.765V647.103Z" stroke="#914AD2" stroke-opacity="0.3" stroke-width="0.5"/>
<path d="M525.706 647.103H420.765V739.403H525.706V647.103Z" stroke="#914AD2" stroke-opacity="0.3" stroke-width="0.5"/>
<path d="M630.647 647.103H525.706V739.403H630.647V647.103Z" stroke="#914AD2" stroke-opacity="0.3" stroke-width="0.5"/>
<path d="M735.588 647.103H630.647V739.403H735.588V647.103Z" stroke="#914AD2" stroke-opacity="0.3" stroke-width="0.5"/>
<path d="M840.53 647.103H735.588V739.403H840.53V647.103Z" stroke="#914AD2" stroke-opacity="0.3" stroke-width="0.5"/>
<path d="M945.471 647.103H840.529V739.403H945.471V647.103Z" stroke="#914AD2" stroke-opacity="0.3" stroke-width="0.5"/>
<path d="M1050.41 647.103H945.471V739.403H1050.41V647.103Z" stroke="#914AD2" stroke-opacity="0.3" stroke-width="0.5"/>
<path d="M1155.35 647.103H1050.41V739.403H1155.35V647.103Z" stroke="#914AD2" stroke-opacity="0.3" stroke-width="0.5"/>
<path d="M1260.29 647.103H1155.35V739.403H1260.29V647.103Z" stroke="#914AD2" stroke-opacity="0.3" stroke-width="0.5"/>
<path d="M1365.24 647.103H1260.29V739.403H1365.24V647.103Z" stroke="#914AD2" stroke-opacity="0.3" stroke-width="0.5"/>
<path d="M1470.18 647.103H1365.24V739.403H1470.18V647.103Z" stroke="#914AD2" stroke-opacity="0.3" stroke-width="0.5"/>
<path d="M1575.12 647.103H1470.18V739.403H1575.12V647.103Z" stroke="#914AD2" stroke-opacity="0.3" stroke-width="0.5"/>
<path d="M1680.06 647.103H1575.12V739.403H1680.06V647.103Z" stroke="#914AD2" stroke-opacity="0.3" stroke-width="0.5"/>
<path d="M1785 647.103H1680.06V739.403H1785V647.103Z" stroke="#914AD2" stroke-opacity="0.3" stroke-width="0.5"/>
<path d="M1889.94 647.103H1785V739.403H1889.94V647.103Z" stroke="#914AD2" stroke-opacity="0.3" stroke-width="0.5"/>
<path d="M105.941 739.403H1V831.703H105.941V739.403Z" stroke="#914AD2" stroke-opacity="0.3" stroke-width="0.5"/>
<path d="M210.883 739.403H105.941V831.703H210.883V739.403Z" stroke="#914AD2" stroke-opacity="0.3" stroke-width="0.5"/>
<path d="M315.824 739.403H210.882V831.703H315.824V739.403Z" stroke="#914AD2" stroke-opacity="0.3" stroke-width="0.5"/>
<path d="M420.765 739.403H315.824V831.703H420.765V739.403Z" stroke="#914AD2" stroke-opacity="0.3" stroke-width="0.5"/>
<path d="M525.706 739.403H420.765V831.703H525.706V739.403Z" stroke="#914AD2" stroke-opacity="0.3" stroke-width="0.5"/>
<path d="M630.647 739.403H525.706V831.703H630.647V739.403Z" stroke="#914AD2" stroke-opacity="0.3" stroke-width="0.5"/>
<path d="M735.588 739.403H630.647V831.703H735.588V739.403Z" stroke="#914AD2" stroke-opacity="0.3" stroke-width="0.5"/>
<path d="M840.53 739.403H735.588V831.703H840.53V739.403Z" stroke="#914AD2" stroke-opacity="0.3" stroke-width="0.5"/>
<path d="M945.471 739.403H840.529V831.703H945.471V739.403Z" stroke="#914AD2" stroke-opacity="0.3" stroke-width="0.5"/>
<path d="M1050.41 739.403H945.471V831.703H1050.41V739.403Z" stroke="#914AD2" stroke-opacity="0.3" stroke-width="0.5"/>
<path d="M1155.35 739.403H1050.41V831.703H1155.35V739.403Z" stroke="#914AD2" stroke-opacity="0.3" stroke-width="0.5"/>
<path d="M1260.29 739.403H1155.35V831.703H1260.29V739.403Z" stroke="#914AD2" stroke-opacity="0.3" stroke-width="0.5"/>
<path d="M1365.24 739.403H1260.29V831.703H1365.24V739.403Z" stroke="#914AD2" stroke-opacity="0.3" stroke-width="0.5"/>
<path d="M1470.18 739.403H1365.24V831.703H1470.18V739.403Z" stroke="#914AD2" stroke-opacity="0.3" stroke-width="0.5"/>
<path d="M1575.12 739.403H1470.18V831.703H1575.12V739.403Z" stroke="#914AD2" stroke-opacity="0.3" stroke-width="0.5"/>
<path d="M1680.06 739.403H1575.12V831.703H1680.06V739.403Z" stroke="#914AD2" stroke-opacity="0.3" stroke-width="0.5"/>
<path d="M1785 739.403H1680.06V831.703H1785V739.403Z" stroke="#914AD2" stroke-opacity="0.3" stroke-width="0.5"/>
<path d="M1889.94 739.403H1785V831.703H1889.94V739.403Z" stroke="#914AD2" stroke-opacity="0.3" stroke-width="0.5"/>
<path d="M105.941 831.703H1V924.003H105.941V831.703Z" stroke="#914AD2" stroke-opacity="0.3" stroke-width="0.5"/>
<path d="M210.883 831.703H105.941V924.003H210.883V831.703Z" stroke="#914AD2" stroke-opacity="0.3" stroke-width="0.5"/>
<path d="M315.824 831.703H210.882V924.003H315.824V831.703Z" stroke="#914AD2" stroke-opacity="0.3" stroke-width="0.5"/>
<path d="M420.765 831.703H315.824V924.003H420.765V831.703Z" stroke="#914AD2" stroke-opacity="0.3" stroke-width="0.5"/>
<path d="M525.706 831.703H420.765V924.003H525.706V831.703Z" stroke="#914AD2" stroke-opacity="0.3" stroke-width="0.5"/>
<path d="M630.647 831.703H525.706V924.003H630.647V831.703Z" stroke="#914AD2" stroke-opacity="0.3" stroke-width="0.5"/>
<path d="M735.588 831.703H630.647V924.003H735.588V831.703Z" stroke="#914AD2" stroke-opacity="0.3" stroke-width="0.5"/>
<path d="M840.53 831.703H735.588V924.003H840.53V831.703Z" stroke="#914AD2" stroke-opacity="0.3" stroke-width="0.5"/>
<path d="M945.471 831.703H840.529V924.003H945.471V831.703Z" stroke="#914AD2" stroke-opacity="0.3" stroke-width="0.5"/>
<path d="M1050.41 831.703H945.471V924.003H1050.41V831.703Z" stroke="#914AD2" stroke-opacity="0.3" stroke-width="0.5"/>
<path d="M1155.35 831.703H1050.41V924.003H1155.35V831.703Z" stroke="#914AD2" stroke-opacity="0.3" stroke-width="0.5"/>
<path d="M1260.29 831.703H1155.35V924.003H1260.29V831.703Z" stroke="#914AD2" stroke-opacity="0.3" stroke-width="0.5"/>
<path d="M1365.24 831.703H1260.29V924.003H1365.24V831.703Z" stroke="#914AD2" stroke-opacity="0.3" stroke-width="0.5"/>
<path d="M1470.18 831.703H1365.24V924.003H1470.18V831.703Z" stroke="#914AD2" stroke-opacity="0.3" stroke-width="0.5"/>
<path d="M1575.12 831.703H1470.18V924.003H1575.12V831.703Z" stroke="#914AD2" stroke-opacity="0.3" stroke-width="0.5"/>
<path d="M1680.06 831.703H1575.12V924.003H1680.06V831.703Z" stroke="#914AD2" stroke-opacity="0.3" stroke-width="0.5"/>
<path d="M1785 831.703H1680.06V924.003H1785V831.703Z" stroke="#914AD2" stroke-opacity="0.3" stroke-width="0.5"/>
<path d="M1889.94 831.703H1785V924.003H1889.94V831.703Z" stroke="#914AD2" stroke-opacity="0.3" stroke-width="0.5"/>
<path d="M105.941 924.003H1V1016.3H105.941V924.003Z" stroke="#914AD2" stroke-opacity="0.3" stroke-width="0.5"/>
<path d="M210.883 924.003H105.941V1016.3H210.883V924.003Z" stroke="#914AD2" stroke-opacity="0.3" stroke-width="0.5"/>
<path d="M315.824 924.003H210.882V1016.3H315.824V924.003Z" stroke="#914AD2" stroke-opacity="0.3" stroke-width="0.5"/>
<path d="M420.765 924.003H315.824V1016.3H420.765V924.003Z" stroke="#914AD2" stroke-opacity="0.3" stroke-width="0.5"/>
<path d="M525.706 924.003H420.765V1016.3H525.706V924.003Z" stroke="#914AD2" stroke-opacity="0.3" stroke-width="0.5"/>
<path d="M630.647 924.003H525.706V1016.3H630.647V924.003Z" stroke="#914AD2" stroke-opacity="0.3" stroke-width="0.5"/>
<path d="M735.588 924.003H630.647V1016.3H735.588V924.003Z" stroke="#914AD2" stroke-opacity="0.3" stroke-width="0.5"/>
<path d="M840.53 924.003H735.588V1016.3H840.53V924.003Z" stroke="#914AD2" stroke-opacity="0.3" stroke-width="0.5"/>
<path d="M945.471 924.003H840.529V1016.3H945.471V924.003Z" stroke="#914AD2" stroke-opacity="0.3" stroke-width="0.5"/>
<path d="M1050.41 924.003H945.471V1016.3H1050.41V924.003Z" stroke="#914AD2" stroke-opacity="0.3" stroke-width="0.5"/>
<path d="M1155.35 924.003H1050.41V1016.3H1155.35V924.003Z" stroke="#914AD2" stroke-opacity="0.3" stroke-width="0.5"/>
<path d="M1260.29 924.003H1155.35V1016.3H1260.29V924.003Z" stroke="#914AD2" stroke-opacity="0.3" stroke-width="0.5"/>
<path d="M1365.24 924.003H1260.29V1016.3H1365.24V924.003Z" stroke="#914AD2" stroke-opacity="0.3" stroke-width="0.5"/>
<path d="M1470.18 924.003H1365.24V1016.3H1470.18V924.003Z" stroke="#914AD2" stroke-opacity="0.3" stroke-width="0.5"/>
<path d="M1575.12 924.003H1470.18V1016.3H1575.12V924.003Z" stroke="#914AD2" stroke-opacity="0.3" stroke-width="0.5"/>
<path d="M1680.06 924.003H1575.12V1016.3H1680.06V924.003Z" stroke="#914AD2" stroke-opacity="0.3" stroke-width="0.5"/>
<path d="M1785 924.003H1680.06V1016.3H1785V924.003Z" stroke="#914AD2" stroke-opacity="0.3" stroke-width="0.5"/>
<path d="M1889.94 924.003H1785V1016.3H1889.94V924.003Z" stroke="#914AD2" stroke-opacity="0.3" stroke-width="0.5"/>
<path d="M105.941 1016.3H1V1108.6H105.941V1016.3Z" stroke="#914AD2" stroke-opacity="0.3" stroke-width="0.5"/>
<path d="M210.883 1016.3H105.941V1108.6H210.883V1016.3Z" stroke="#914AD2" stroke-opacity="0.3" stroke-width="0.5"/>
<path d="M315.824 1016.3H210.882V1108.6H315.824V1016.3Z" stroke="#914AD2" stroke-opacity="0.3" stroke-width="0.5"/>
<path d="M420.765 1016.3H315.824V1108.6H420.765V1016.3Z" stroke="#914AD2" stroke-opacity="0.3" stroke-width="0.5"/>
<path d="M525.706 1016.3H420.765V1108.6H525.706V1016.3Z" stroke="#914AD2" stroke-opacity="0.3" stroke-width="0.5"/>
<path d="M630.647 1016.3H525.706V1108.6H630.647V1016.3Z" stroke="#914AD2" stroke-opacity="0.3" stroke-width="0.5"/>
<path d="M735.588 1016.3H630.647V1108.6H735.588V1016.3Z" stroke="#914AD2" stroke-opacity="0.3" stroke-width="0.5"/>
<path d="M840.53 1016.3H735.588V1108.6H840.53V1016.3Z" stroke="#914AD2" stroke-opacity="0.3" stroke-width="0.5"/>
<path d="M945.471 1016.3H840.529V1108.6H945.471V1016.3Z" stroke="#914AD2" stroke-opacity="0.3" stroke-width="0.5"/>
<path d="M1050.41 1016.3H945.471V1108.6H1050.41V1016.3Z" stroke="#914AD2" stroke-opacity="0.3" stroke-width="0.5"/>
<path d="M1155.35 1016.3H1050.41V1108.6H1155.35V1016.3Z" stroke="#914AD2" stroke-opacity="0.3" stroke-width="0.5"/>
<path d="M1260.29 1016.3H1155.35V1108.6H1260.29V1016.3Z" stroke="#914AD2" stroke-opacity="0.3" stroke-width="0.5"/>
<path d="M1365.24 1016.3H1260.29V1108.6H1365.24V1016.3Z" stroke="#914AD2" stroke-opacity="0.3" stroke-width="0.5"/>
<path d="M1470.18 1016.3H1365.24V1108.6H1470.18V1016.3Z" stroke="#914AD2" stroke-opacity="0.3" stroke-width="0.5"/>
<path d="M1575.12 1016.3H1470.18V1108.6H1575.12V1016.3Z" stroke="#914AD2" stroke-opacity="0.3" stroke-width="0.5"/>
<path d="M1680.06 1016.3H1575.12V1108.6H1680.06V1016.3Z" stroke="#914AD2" stroke-opacity="0.3" stroke-width="0.5"/>
<path d="M1785 1016.3H1680.06V1108.6H1785V1016.3Z" stroke="#914AD2" stroke-opacity="0.3" stroke-width="0.5"/>
<path d="M1889.94 1016.3H1785V1108.6H1889.94V1016.3Z" stroke="#914AD2" stroke-opacity="0.3" stroke-width="0.5"/>
<path d="M105.941 1108.6H1V1200.9H105.941V1108.6Z" stroke="#914AD2" stroke-opacity="0.3" stroke-width="0.5"/>
<path d="M210.883 1108.6H105.941V1200.9H210.883V1108.6Z" stroke="#914AD2" stroke-opacity="0.3" stroke-width="0.5"/>
<path d="M315.824 1108.6H210.882V1200.9H315.824V1108.6Z" stroke="#914AD2" stroke-opacity="0.3" stroke-width="0.5"/>
<path d="M420.765 1108.6H315.824V1200.9H420.765V1108.6Z" stroke="#914AD2" stroke-opacity="0.3" stroke-width="0.5"/>
<path d="M525.706 1108.6H420.765V1200.9H525.706V1108.6Z" stroke="#914AD2" stroke-opacity="0.3" stroke-width="0.5"/>
<path d="M630.647 1108.6H525.706V1200.9H630.647V1108.6Z" stroke="#914AD2" stroke-opacity="0.3" stroke-width="0.5"/>
<path d="M735.588 1108.6H630.647V1200.9H735.588V1108.6Z" stroke="#914AD2" stroke-opacity="0.3" stroke-width="0.5"/>
<path d="M840.53 1108.6H735.588V1200.9H840.53V1108.6Z" stroke="#914AD2" stroke-opacity="0.3" stroke-width="0.5"/>
<path d="M945.471 1108.6H840.529V1200.9H945.471V1108.6Z" stroke="#914AD2" stroke-opacity="0.3" stroke-width="0.5"/>
<path d="M1050.41 1108.6H945.471V1200.9H1050.41V1108.6Z" stroke="#914AD2" stroke-opacity="0.3" stroke-width="0.5"/>
<path d="M1155.35 1108.6H1050.41V1200.9H1155.35V1108.6Z" stroke="#914AD2" stroke-opacity="0.3" stroke-width="0.5"/>
<path d="M1260.29 1108.6H1155.35V1200.9H1260.29V1108.6Z" stroke="#914AD2" stroke-opacity="0.3" stroke-width="0.5"/>
<path d="M1365.24 1108.6H1260.29V1200.9H1365.24V1108.6Z" stroke="#914AD2" stroke-opacity="0.3" stroke-width="0.5"/>
<path d="M1470.18 1108.6H1365.24V1200.9H1470.18V1108.6Z" stroke="#914AD2" stroke-opacity="0.3" stroke-width="0.5"/>
<path d="M1575.12 1108.6H1470.18V1200.9H1575.12V1108.6Z" stroke="#914AD2" stroke-opacity="0.3" stroke-width="0.5"/>
<path d="M1680.06 1108.6H1575.12V1200.9H1680.06V1108.6Z" stroke="#914AD2" stroke-opacity="0.3" stroke-width="0.5"/>
<path d="M1785 1108.6H1680.06V1200.9H1785V1108.6Z" stroke="#914AD2" stroke-opacity="0.3" stroke-width="0.5"/>
<path d="M1889.94 1108.6H1785V1200.9H1889.94V1108.6Z" stroke="#914AD2" stroke-opacity="0.3" stroke-width="0.5"/>
<path d="M105.941 1200.9H1V1293.21H105.941V1200.9Z" stroke="#914AD2" stroke-opacity="0.3" stroke-width="0.5"/>
<path d="M210.883 1200.9H105.941V1293.21H210.883V1200.9Z" stroke="#914AD2" stroke-opacity="0.3" stroke-width="0.5"/>
<path d="M315.824 1200.9H210.882V1293.21H315.824V1200.9Z" stroke="#914AD2" stroke-opacity="0.3" stroke-width="0.5"/>
<path d="M420.765 1200.9H315.824V1293.21H420.765V1200.9Z" stroke="#914AD2" stroke-opacity="0.3" stroke-width="0.5"/>
<path d="M525.706 1200.9H420.765V1293.21H525.706V1200.9Z" stroke="#914AD2" stroke-opacity="0.3" stroke-width="0.5"/>
<path d="M630.647 1200.9H525.706V1293.21H630.647V1200.9Z" stroke="#914AD2" stroke-opacity="0.3" stroke-width="0.5"/>
<path d="M735.588 1200.9H630.647V1293.21H735.588V1200.9Z" stroke="#914AD2" stroke-opacity="0.3" stroke-width="0.5"/>
<path d="M840.53 1200.9H735.588V1293.21H840.53V1200.9Z" stroke="#914AD2" stroke-opacity="0.3" stroke-width="0.5"/>
<path d="M945.471 1200.9H840.529V1293.21H945.471V1200.9Z" stroke="#914AD2" stroke-opacity="0.3" stroke-width="0.5"/>
<path d="M1050.41 1200.9H945.471V1293.21H1050.41V1200.9Z" stroke="#914AD2" stroke-opacity="0.3" stroke-width="0.5"/>
<path d="M1155.35 1200.9H1050.41V1293.21H1155.35V1200.9Z" stroke="#914AD2" stroke-opacity="0.3" stroke-width="0.5"/>
<path d="M1260.29 1200.9H1155.35V1293.21H1260.29V1200.9Z" stroke="#914AD2" stroke-opacity="0.3" stroke-width="0.5"/>
<path d="M1365.24 1200.9H1260.29V1293.21H1365.24V1200.9Z" stroke="#914AD2" stroke-opacity="0.3" stroke-width="0.5"/>
<path d="M1470.18 1200.9H1365.24V1293.21H1470.18V1200.9Z" stroke="#914AD2" stroke-opacity="0.3" stroke-width="0.5"/>
<path d="M1575.12 1200.9H1470.18V1293.21H1575.12V1200.9Z" stroke="#914AD2" stroke-opacity="0.3" stroke-width="0.5"/>
<path d="M1680.06 1200.9H1575.12V1293.21H1680.06V1200.9Z" stroke="#914AD2" stroke-opacity="0.3" stroke-width="0.5"/>
<path d="M1785 1200.9H1680.06V1293.21H1785V1200.9Z" stroke="#914AD2" stroke-opacity="0.3" stroke-width="0.5"/>
<path d="M1889.94 1200.9H1785V1293.21H1889.94V1200.9Z" stroke="#914AD2" stroke-opacity="0.3" stroke-width="0.5"/>
<path d="M105.941 1293.21H1V1385.51H105.941V1293.21Z" stroke="#914AD2" stroke-opacity="0.3" stroke-width="0.5"/>
<path d="M210.883 1293.21H105.941V1385.51H210.883V1293.21Z" stroke="#914AD2" stroke-opacity="0.3" stroke-width="0.5"/>
<path d="M315.824 1293.21H210.882V1385.51H315.824V1293.21Z" stroke="#914AD2" stroke-opacity="0.3" stroke-width="0.5"/>
<path d="M420.765 1293.21H315.824V1385.51H420.765V1293.21Z" stroke="#914AD2" stroke-opacity="0.3" stroke-width="0.5"/>
<path d="M525.706 1293.21H420.765V1385.51H525.706V1293.21Z" stroke="#914AD2" stroke-opacity="0.3" stroke-width="0.5"/>
<path d="M630.647 1293.21H525.706V1385.51H630.647V1293.21Z" stroke="#914AD2" stroke-opacity="0.3" stroke-width="0.5"/>
<path d="M735.588 1293.21H630.647V1385.51H735.588V1293.21Z" stroke="#914AD2" stroke-opacity="0.3" stroke-width="0.5"/>
<path d="M840.53 1293.21H735.588V1385.51H840.53V1293.21Z" stroke="#914AD2" stroke-opacity="0.3" stroke-width="0.5"/>
<path d="M945.471 1293.21H840.529V1385.51H945.471V1293.21Z" stroke="#914AD2" stroke-opacity="0.3" stroke-width="0.5"/>
<path d="M1050.41 1293.21H945.471V1385.51H1050.41V1293.21Z" stroke="#914AD2" stroke-opacity="0.3" stroke-width="0.5"/>
<path d="M1155.35 1293.21H1050.41V1385.51H1155.35V1293.21Z" stroke="#914AD2" stroke-opacity="0.3" stroke-width="0.5"/>
<path d="M1260.29 1293.21H1155.35V1385.51H1260.29V1293.21Z" stroke="#914AD2" stroke-opacity="0.3" stroke-width="0.5"/>
<path d="M1365.24 1293.21H1260.29V1385.51H1365.24V1293.21Z" stroke="#914AD2" stroke-opacity="0.3" stroke-width="0.5"/>
<path d="M1470.18 1293.21H1365.24V1385.51H1470.18V1293.21Z" stroke="#914AD2" stroke-opacity="0.3" stroke-width="0.5"/>
<path d="M1575.12 1293.21H1470.18V1385.51H1575.12V1293.21Z" stroke="#914AD2" stroke-opacity="0.3" stroke-width="0.5"/>
<path d="M1680.06 1293.21H1575.12V1385.51H1680.06V1293.21Z" stroke="#914AD2" stroke-opacity="0.3" stroke-width="0.5"/>
<path d="M1785 1293.21H1680.06V1385.51H1785V1293.21Z" stroke="#914AD2" stroke-opacity="0.3" stroke-width="0.5"/>
<path d="M1889.94 1293.21H1785V1385.51H1889.94V1293.21Z" stroke="#914AD2" stroke-opacity="0.3" stroke-width="0.5"/>
<path d="M105.941 1385.51H1V1477.81H105.941V1385.51Z" stroke="#914AD2" stroke-opacity="0.3" stroke-width="0.5"/>
<path d="M210.883 1385.51H105.941V1477.81H210.883V1385.51Z" stroke="#914AD2" stroke-opacity="0.3" stroke-width="0.5"/>
<path d="M315.824 1385.51H210.882V1477.81H315.824V1385.51Z" stroke="#914AD2" stroke-opacity="0.3" stroke-width="0.5"/>
<path d="M420.765 1385.51H315.824V1477.81H420.765V1385.51Z" stroke="#914AD2" stroke-opacity="0.3" stroke-width="0.5"/>
<path d="M525.706 1385.51H420.765V1477.81H525.706V1385.51Z" stroke="#914AD2" stroke-opacity="0.3" stroke-width="0.5"/>
<path d="M630.647 1385.51H525.706V1477.81H630.647V1385.51Z" stroke="#914AD2" stroke-opacity="0.3" stroke-width="0.5"/>
<path d="M735.588 1385.51H630.647V1477.81H735.588V1385.51Z" stroke="#914AD2" stroke-opacity="0.3" stroke-width="0.5"/>
<path d="M840.53 1385.51H735.588V1477.81H840.53V1385.51Z" stroke="#914AD2" stroke-opacity="0.3" stroke-width="0.5"/>
<path d="M945.471 1385.51H840.529V1477.81H945.471V1385.51Z" stroke="#914AD2" stroke-opacity="0.3" stroke-width="0.5"/>
<path d="M1050.41 1385.51H945.471V1477.81H1050.41V1385.51Z" stroke="#914AD2" stroke-opacity="0.3" stroke-width="0.5"/>
<path d="M1155.35 1385.51H1050.41V1477.81H1155.35V1385.51Z" stroke="#914AD2" stroke-opacity="0.3" stroke-width="0.5"/>
<path d="M1260.29 1385.51H1155.35V1477.81H1260.29V1385.51Z" stroke="#914AD2" stroke-opacity="0.3" stroke-width="0.5"/>
<path d="M1365.24 1385.51H1260.29V1477.81H1365.24V1385.51Z" stroke="#914AD2" stroke-opacity="0.3" stroke-width="0.5"/>
<path d="M1470.18 1385.51H1365.24V1477.81H1470.18V1385.51Z" stroke="#914AD2" stroke-opacity="0.3" stroke-width="0.5"/>
<path d="M1575.12 1385.51H1470.18V1477.81H1575.12V1385.51Z" stroke="#914AD2" stroke-opacity="0.3" stroke-width="0.5"/>
<path d="M1680.06 1385.51H1575.12V1477.81H1680.06V1385.51Z" stroke="#914AD2" stroke-opacity="0.3" stroke-width="0.5"/>
<path d="M1785 1385.51H1680.06V1477.81H1785V1385.51Z" stroke="#914AD2" stroke-opacity="0.3" stroke-width="0.5"/>
<path d="M1889.94 1385.51H1785V1477.81H1889.94V1385.51Z" stroke="#914AD2" stroke-opacity="0.3" stroke-width="0.5"/>
<path d="M105.941 1477.81H1V1570.11H105.941V1477.81Z" stroke="#914AD2" stroke-opacity="0.3" stroke-width="0.5"/>
<path d="M210.883 1477.81H105.941V1570.11H210.883V1477.81Z" stroke="#914AD2" stroke-opacity="0.3" stroke-width="0.5"/>
<path d="M315.824 1477.81H210.882V1570.11H315.824V1477.81Z" stroke="#914AD2" stroke-opacity="0.3" stroke-width="0.5"/>
<path d="M420.765 1477.81H315.824V1570.11H420.765V1477.81Z" stroke="#914AD2" stroke-opacity="0.3" stroke-width="0.5"/>
<path d="M525.706 1477.81H420.765V1570.11H525.706V1477.81Z" stroke="#914AD2" stroke-opacity="0.3" stroke-width="0.5"/>
<path d="M630.647 1477.81H525.706V1570.11H630.647V1477.81Z" stroke="#914AD2" stroke-opacity="0.3" stroke-width="0.5"/>
<path d="M735.588 1477.81H630.647V1570.11H735.588V1477.81Z" stroke="#914AD2" stroke-opacity="0.3" stroke-width="0.5"/>
<path d="M840.53 1477.81H735.588V1570.11H840.53V1477.81Z" stroke="#914AD2" stroke-opacity="0.3" stroke-width="0.5"/>
<path d="M945.471 1477.81H840.529V1570.11H945.471V1477.81Z" stroke="#914AD2" stroke-opacity="0.3" stroke-width="0.5"/>
<path d="M1050.41 1477.81H945.471V1570.11H1050.41V1477.81Z" stroke="#914AD2" stroke-opacity="0.3" stroke-width="0.5"/>
<path d="M1155.35 1477.81H1050.41V1570.11H1155.35V1477.81Z" stroke="#914AD2" stroke-opacity="0.3" stroke-width="0.5"/>
<path d="M1260.29 1477.81H1155.35V1570.11H1260.29V1477.81Z" stroke="#914AD2" stroke-opacity="0.3" stroke-width="0.5"/>
<path d="M1365.24 1477.81H1260.29V1570.11H1365.24V1477.81Z" stroke="#914AD2" stroke-opacity="0.3" stroke-width="0.5"/>
<path d="M1470.18 1477.81H1365.24V1570.11H1470.18V1477.81Z" stroke="#914AD2" stroke-opacity="0.3" stroke-width="0.5"/>
<path d="M1575.12 1477.81H1470.18V1570.11H1575.12V1477.81Z" stroke="#914AD2" stroke-opacity="0.3" stroke-width="0.5"/>
<path d="M1680.06 1477.81H1575.12V1570.11H1680.06V1477.81Z" stroke="#914AD2" stroke-opacity="0.3" stroke-width="0.5"/>
<path d="M1785 1477.81H1680.06V1570.11H1785V1477.81Z" stroke="#914AD2" stroke-opacity="0.3" stroke-width="0.5"/>
<path d="M1889.94 1477.81H1785V1570.11H1889.94V1477.81Z" stroke="#914AD2" stroke-opacity="0.3" stroke-width="0.5"/>
<path d="M105.941 1570.11H1V1662.41H105.941V1570.11Z" stroke="#914AD2" stroke-opacity="0.3" stroke-width="0.5"/>
<path d="M210.883 1570.11H105.941V1662.41H210.883V1570.11Z" stroke="#914AD2" stroke-opacity="0.3" stroke-width="0.5"/>
<path d="M315.824 1570.11H210.882V1662.41H315.824V1570.11Z" stroke="#914AD2" stroke-opacity="0.3" stroke-width="0.5"/>
<path d="M420.765 1570.11H315.824V1662.41H420.765V1570.11Z" stroke="#914AD2" stroke-opacity="0.3" stroke-width="0.5"/>
<path d="M525.706 1570.11H420.765V1662.41H525.706V1570.11Z" stroke="#914AD2" stroke-opacity="0.3" stroke-width="0.5"/>
<path d="M630.647 1570.11H525.706V1662.41H630.647V1570.11Z" stroke="#914AD2" stroke-opacity="0.3" stroke-width="0.5"/>
<path d="M735.588 1570.11H630.647V1662.41H735.588V1570.11Z" stroke="#914AD2" stroke-opacity="0.3" stroke-width="0.5"/>
<path d="M840.53 1570.11H735.588V1662.41H840.53V1570.11Z" stroke="#914AD2" stroke-opacity="0.3" stroke-width="0.5"/>
<path d="M945.471 1570.11H840.529V1662.41H945.471V1570.11Z" stroke="#914AD2" stroke-opacity="0.3" stroke-width="0.5"/>
<path d="M1050.41 1570.11H945.471V1662.41H1050.41V1570.11Z" stroke="#914AD2" stroke-opacity="0.3" stroke-width="0.5"/>
<path d="M1155.35 1570.11H1050.41V1662.41H1155.35V1570.11Z" stroke="#914AD2" stroke-opacity="0.3" stroke-width="0.5"/>
<path d="M1260.29 1570.11H1155.35V1662.41H1260.29V1570.11Z" stroke="#914AD2" stroke-opacity="0.3" stroke-width="0.5"/>
<path d="M1365.24 1570.11H1260.29V1662.41H1365.24V1570.11Z" stroke="#914AD2" stroke-opacity="0.3" stroke-width="0.5"/>
<path d="M1470.18 1570.11H1365.24V1662.41H1470.18V1570.11Z" stroke="#914AD2" stroke-opacity="0.3" stroke-width="0.5"/>
<path d="M1575.12 1570.11H1470.18V1662.41H1575.12V1570.11Z" stroke="#914AD2" stroke-opacity="0.3" stroke-width="0.5"/>
<path d="M1680.06 1570.11H1575.12V1662.41H1680.06V1570.11Z" stroke="#914AD2" stroke-opacity="0.3" stroke-width="0.5"/>
<path d="M1785 1570.11H1680.06V1662.41H1785V1570.11Z" stroke="#914AD2" stroke-opacity="0.3" stroke-width="0.5"/>
<path d="M1889.94 1570.11H1785V1662.41H1889.94V1570.11Z" stroke="#914AD2" stroke-opacity="0.3" stroke-width="0.5"/>
</svg>
